<?xml version="1.0" encoding="utf-8"?>
<!-- Generator: Adobe Illustrator 22.1.0, SVG Export Plug-In . SVG Version: 6.00 Build 0)  -->
<svg version="1.2" baseProfile="tiny" id="Livello_1"
	 xmlns="http://www.w3.org/2000/svg" xmlns:xlink="http://www.w3.org/1999/xlink" x="0px" y="0px" viewBox="0 0 295 63"
	 xml:space="preserve">
<g>
	<path fill="#CA9A24" d="M44.6,19.6c0.8-1.4,1.7-2.8,2.8-4.1c1.1-1.3,2.3-2.5,3.6-3.6c-2-0.2-4-0.4-5.9-0.8c-2-0.4-3.9-0.7-5.8-1
		s-3.8-0.6-5.7-0.9c-1.9-0.2-3.7-0.4-5.5-0.4c-2,0-3.7,0.2-5.1,0.5c-1.4,0.4-2.5,0.9-3.4,1.5c-0.9,0.6-1.5,1.4-1.9,2.3
		c-0.4,0.9-0.6,1.9-0.6,3c0,1.1,0.2,2.1,0.5,2.9c0.3,0.8,0.8,1.5,1.5,2c0.6,0.5,1.4,0.9,2.3,1.2c0.9,0.3,1.8,0.4,2.9,0.4
		c0.7,0,1.5-0.1,2.3-0.2c0.8-0.1,1.6-0.3,2.4-0.5c0.8-0.2,1.5-0.5,2.3-0.8s1.4-0.6,2.1-1l0.7,0.8c-1.5,0.9-3.1,1.5-4.8,2
		c-1.7,0.5-3.4,0.7-4.9,0.7c-1.3,0-2.5-0.2-3.5-0.5c-1-0.4-1.9-0.9-2.7-1.5c-0.7-0.7-1.3-1.5-1.7-2.4c-0.4-1-0.6-2-0.6-3.2
		c0-3.2,1.3-5.6,4-7.3c2.7-1.7,6.6-2.6,11.6-2.6c2,0,4,0.1,6,0.4c2,0.2,3.9,0.5,5.9,0.8c2,0.3,3.9,0.6,5.9,0.9c2,0.3,4,0.4,6.2,0.5
		c1.8-1,3.7-1.9,5.6-2.4c1.9-0.6,3.8-0.9,5.7-0.9c1,0,1.6,0.1,2,0.3c0.4,0.2,0.5,0.5,0.5,1c0,0.7-0.4,1.4-1.1,2.1
		c-0.7,0.6-1.7,1.2-2.9,1.7c-1.2,0.5-2.7,0.9-4.4,1.1s-3.5,0.4-5.5,0.4c-0.3,0-0.6,0-1,0s-0.6,0-1,0c-0.3,0.3-0.6,0.6-0.9,1
		c-0.3,0.3-0.5,0.6-0.7,1c-0.2,0.3-0.4,0.6-0.6,1c-0.2,0.4-0.4,0.9-0.7,1.5c-0.3,0.6-0.6,1.4-1,2.3c-0.4,0.9-0.8,2.1-1.3,3.5
		s-1.1,3-1.8,5c-0.7,1.9-1.5,4.2-2.4,6.8c-1.8,5-3.7,9.2-5.5,12.8c-1.9,3.6-3.9,6.5-6,8.8c-2.1,2.3-4.4,4-6.8,5s-5.1,1.6-8,1.6
		c-3.9,0-6.8-0.9-8.9-2.6s-3.1-4.1-3.1-7.3c0-1.2,0.1-2.2,0.4-3.3c0.3-1,0.6-1.9,1.1-2.7c0.5-0.8,1-1.4,1.6-1.8
		c0.6-0.5,1.2-0.7,1.9-0.7c0.6,0,1,0.2,1.4,0.5c0.3,0.4,0.5,0.9,0.5,1.5c0,0.3-0.1,0.6-0.2,0.8c-0.1,0.2-0.3,0.4-0.5,0.6
		c-0.2,0.2-0.6,0.4-1,0.6s-1,0.4-1.6,0.7c-0.7,0.3-1.1,0.7-1.5,1.2c-0.3,0.5-0.5,1.4-0.5,2.5c0,2.8,0.8,4.9,2.5,6.3
		c1.7,1.4,4.2,2.1,7.6,2.1c1.4,0,2.7-0.1,3.8-0.3c1.2-0.2,2.2-0.6,3.2-1.2c1-0.6,2-1.4,2.9-2.5c0.9-1,1.8-2.4,2.8-4
		c0.9-1.6,1.9-3.5,2.9-5.8c1-2.2,2.1-4.9,3.3-7.9c1-2.6,1.9-4.8,2.6-6.6c0.7-1.9,1.4-3.5,1.9-4.8c0.5-1.3,1-2.4,1.3-3.3
		c0.4-0.9,0.7-1.6,0.9-2.2c0.3-0.6,0.5-1.1,0.7-1.5C44.2,20.4,44.4,20,44.6,19.6z M66.7,6.5c-1.4,0-2.9,0.2-4.4,0.6
		c-1.5,0.4-2.9,1-4.3,1.7c1.3,0,2.5-0.1,3.8-0.3c1.2-0.1,2.3-0.3,3.2-0.5c1-0.2,1.7-0.4,2.3-0.6c0.6-0.2,0.9-0.4,0.9-0.7
		C68.2,6.7,67.7,6.5,66.7,6.5z"/>
	<path fill="#CA9A24" d="M72.6,61.7c-4.1,0-7.3-1.1-9.5-3.2c-2.2-2.1-3.3-5.3-3.3-9.6c0-1.2,0.1-2.4,0.3-3.7s0.4-2.6,0.8-4
		c0.8-3,2-5.8,3.5-8.4c1.5-2.6,3.2-4.8,5.1-6.7c1.9-1.9,4-3.4,6.2-4.4s4.5-1.6,6.7-1.6c2.3,0,4.1,0.5,5.4,1.6c1.3,1.1,2,2.6,2,4.5
		c0,1.1-0.2,2.2-0.6,3.2c-0.4,1-1.1,2-1.9,3c-0.8,0.9-1.8,1.8-2.9,2.6c-1.1,0.8-2.4,1.5-3.9,2.1c-1.8,0.7-3.7,1.3-5.8,1.7
		s-4.6,0.6-7.3,0.6c-0.7,1.8-1.2,3.7-1.5,5.7c-0.4,2-0.6,4-0.6,6.1c0,3.2,0.7,5.4,2,6.8s3.4,2.1,6.3,2.1c2.4,0,4.6-0.5,6.8-1.4
		c2.2-0.9,4.1-2.1,6-3.6c1.8-1.5,3.5-3.2,5-5.1c1.5-1.9,2.8-3.9,4-5.9l1.8-3.1l0.9,0.6l-1.8,3.1c-1.4,2.5-2.9,4.7-4.6,6.8
		c-1.7,2.1-3.5,3.9-5.4,5.4c-2,1.5-4.1,2.7-6.3,3.5C77.5,61.3,75.1,61.7,72.6,61.7z M83.3,21.5c-1.4,0-2.9,0.4-4.4,1.3
		c-1.5,0.8-2.9,2-4.3,3.5c-1.4,1.5-2.7,3.2-3.9,5.3c-1.2,2-2.2,4.2-3.1,6.6c2.5,0,4.6-0.3,6.4-0.7c1.8-0.4,3.3-0.9,4.6-1.5
		c1-0.5,2.1-1.1,3-1.9c1-0.8,1.9-1.6,2.6-2.6c0.8-1,1.4-2,1.8-3.2c0.5-1.1,0.7-2.3,0.7-3.5c0-0.6-0.1-1.1-0.3-1.5
		c-0.2-0.4-0.4-0.7-0.7-1c-0.3-0.3-0.7-0.4-1.1-0.6C84.2,21.6,83.8,21.5,83.3,21.5z"/>
	<path fill="#CA9A24" d="M122.3,23.2c0-0.4-0.2-0.7-0.7-1.1c-0.5-0.4-1.1-0.6-2-0.6c-0.9,0-1.9,0.3-3,0.8c-1.1,0.6-2.3,1.5-3.6,2.9
		c-1.4,1.4-2.9,3.3-4.6,5.7c-1.7,2.4-3.6,5.5-5.7,9.3l-1.7,3l-6.4,17.8h-5.1l14.7-40.3h5l-6,16.3c1.9-3.2,3.6-5.9,5.1-8
		c1.5-2.2,3-3.9,4.3-5.2c1.3-1.3,2.6-2.3,3.7-2.8c1.2-0.6,2.3-0.9,3.4-0.9c1.5,0,2.7,0.4,3.5,1.3c0.9,0.9,1.3,2,1.3,3.5
		c0,0.6-0.1,1.2-0.2,1.7c-0.1,0.5-0.4,1-0.6,1.4c-0.3,0.4-0.6,0.7-1,0.9s-0.9,0.3-1.4,0.3c-0.4,0-0.7-0.1-1.1-0.2
		c-0.4-0.1-0.7-0.3-0.9-0.5c-0.3-0.2-0.5-0.5-0.7-0.9c-0.2-0.3-0.3-0.7-0.3-1.2c0-0.4,0.1-0.7,0.2-1.1s0.3-0.7,0.5-1
		c0.2-0.3,0.5-0.5,0.8-0.7c0.3-0.2,0.7-0.3,1.1-0.3c0.2,0,0.5,0,0.7,0.1c0,0,0.1,0.1,0.2,0.1c0.1,0,0.1,0.1,0.2,0.1
		C122.2,23.7,122.3,23.5,122.3,23.2z"/>
	<path fill="#CA9A24" d="M165.9,21.7l-31.9,33.1c0.5-0.2,1-0.4,1.6-0.5c0.6-0.1,1.2-0.2,1.8-0.2c1,0,2.1,0.1,3.2,0.3
		c1.1,0.2,2.3,0.5,3.4,0.9c1.1,0.3,2.3,0.7,3.4,1.1c1.1,0.4,2.1,0.7,3.1,1.1c1,0.3,1.9,0.6,2.7,0.9c0.8,0.2,1.5,0.3,2.1,0.3
		c0.5,0,1.1,0,1.5-0.1c0.5-0.1,1-0.2,1.4-0.4c0.5-0.2,0.9-0.4,1.4-0.7c0.5-0.3,0.9-0.7,1.4-1.1c1.4-1.3,2.8-3,4.3-5
		c1.5-2,3.1-4.5,4.8-7.3l1.9-3.1l0.9,0.6l-1.9,3.1c-1.8,3-3.4,5.6-4.9,7.7s-2.9,3.8-4.4,5.2c-0.9,0.8-1.8,1.5-2.6,2.1
		c-0.8,0.5-1.7,1-2.6,1.3c-0.9,0.3-1.8,0.5-2.8,0.6c-1,0.1-2,0.2-3.2,0.2c-0.9,0-1.8-0.1-2.8-0.3c-1-0.2-2-0.5-3-0.8
		c-1-0.3-2-0.7-3-1.1c-1-0.4-2-0.7-3-1.1c-1-0.3-2-0.6-2.9-0.8c-0.9-0.2-1.8-0.3-2.7-0.3c-0.6,0-1.1,0.1-1.4,0.3s-0.7,0.4-1.1,0.8
		c-0.4,0.4-0.8,0.8-1.3,1.4c-0.5,0.6-1.2,1.2-2.1,2l-0.8-1.3l34.3-35.8c-1.5,0.9-2.9,1.7-4.3,2.2c-1.4,0.5-2.8,0.8-4.2,0.8
		c-0.8,0-1.7-0.1-2.5-0.3c-0.9-0.2-1.7-0.5-2.6-0.8c-0.9-0.3-1.7-0.7-2.5-1.1c-0.8-0.4-1.6-0.7-2.2-1.1c-0.7-0.3-1.3-0.6-1.9-0.8
		c-0.6-0.2-1-0.3-1.4-0.3c-0.6,0-1.3,0.4-2.1,1.1c-0.8,0.7-1.8,1.7-2.8,3.1c-1.1,1.3-2.2,3-3.5,5s-2.6,4.2-4,6.7l-1.8,3.2l-0.9-0.6
		l1.8-3.2c1.8-3.3,3.5-6.1,4.9-8.4c1.5-2.3,2.8-4.2,4.1-5.7c1.3-1.5,2.5-2.6,3.7-3.3c1.2-0.7,2.5-1,3.9-1c1.3,0,2.5,0.2,3.6,0.7
		c1.2,0.5,2.3,1,3.4,1.5c1.1,0.5,2.2,1,3.4,1.5c1.1,0.5,2.3,0.7,3.5,0.7c1.2,0,2.5-0.3,3.8-0.9c1.4-0.6,2.9-1.7,4.7-3.2L165.9,21.7z
		"/>
	<path fill="#CA9A24" d="M171.8,41.3c0.8-3,2-5.8,3.5-8.4c1.5-2.6,3.3-4.8,5.3-6.7c2-1.9,4.1-3.4,6.5-4.4c2.3-1.1,4.7-1.6,7-1.6
		c1.9,0,3.5,0.3,4.8,1s2.4,1.5,3.1,2.6c0.8,1.1,1.4,2.3,1.7,3.8s0.5,2.9,0.5,4.5c0,1.7-0.2,3.4-0.5,5.1c-0.3,1.7-0.8,3.3-1.3,4.9
		c-0.3,1-0.7,1.9-1.1,2.8c-0.4,0.9-0.8,1.8-1.3,2.7c0.3,0.7,0.8,1.4,1.4,1.8c0.6,0.5,1.5,0.7,2.5,0.7c0.6,0,1.3-0.1,2-0.3
		c0.7-0.2,1.5-0.5,2.2-1c0.7-0.5,1.5-1.1,2.2-1.8s1.4-1.7,2-2.8l1.8-3.1l0.9,0.6l-1.8,3.1c-0.9,1.5-1.7,2.7-2.6,3.6
		c-0.9,0.9-1.8,1.5-2.6,2c-0.8,0.5-1.6,0.7-2.4,0.9c-0.7,0.1-1.4,0.2-1.9,0.2c-1.1,0-2-0.1-2.9-0.4c-0.8-0.3-1.6-0.7-2.2-1.1
		c-1.1,1.8-2.4,3.5-3.8,4.9c-1.4,1.5-2.8,2.7-4.3,3.8c-1.5,1-3.1,1.8-4.7,2.4s-3.2,0.9-4.8,0.9s-3.1-0.3-4.3-0.9
		c-1.3-0.6-2.4-1.4-3.2-2.5c-0.9-1.1-1.6-2.4-2-4c-0.5-1.6-0.7-3.3-0.7-5.3c0-1.2,0.1-2.5,0.3-3.8S171.5,42.6,171.8,41.3z M181.6,60
		c1.3,0,2.6-0.3,4-0.9s2.7-1.5,4-2.6c1.3-1.1,2.6-2.5,3.8-4c1.2-1.6,2.3-3.3,3.3-5.3c-0.3-0.5-0.5-1.1-0.6-1.6
		c-0.1-0.6-0.2-1.1-0.2-1.7c0-0.7,0.1-1.3,0.3-2c0.2-0.6,0.5-1.2,0.8-1.8c0.4-0.6,0.8-1.1,1.4-1.5c0.6-0.5,1.3-0.8,2-1.1
		c0.3-1.3,0.6-2.6,0.9-4c0.2-1.4,0.3-2.7,0.3-4.1c0-1.1-0.1-2.1-0.3-3.1c-0.2-1-0.5-1.8-1-2.6c-0.5-0.7-1.1-1.3-2-1.7
		c-0.8-0.4-1.9-0.6-3.1-0.6c-1.8,0-3.5,0.5-5.3,1.4c-1.7,0.9-3.4,2.3-4.9,4c-1.6,1.7-3,3.8-4.2,6.1c-1.3,2.4-2.3,5-3.2,7.9
		c-0.6,1.9-1,3.9-1.3,5.8c-0.3,1.9-0.5,3.7-0.5,5.3C176,57.4,177.9,60,181.6,60z"/>
	<path fill="#CA9A24" d="M221.5,20.8h5l-5.3,14.6c1.5-2.6,3-4.8,4.4-6.7c1.4-1.9,2.8-3.5,4.2-4.8c1.4-1.3,2.8-2.2,4.2-2.8
		c1.4-0.6,2.9-0.9,4.5-0.9c1.4,0,2.7,0.2,3.7,0.7c1.1,0.5,2,1.1,2.7,1.9c0.7,0.8,1.3,1.7,1.6,2.8c0.4,1.1,0.5,2.2,0.5,3.4
		c0,1.3-0.2,2.7-0.6,4.2c-0.4,1.5-0.8,3.1-1.4,4.7c-0.6,1.6-1.2,3.2-1.8,4.9c-0.7,1.6-1.3,3.2-1.8,4.7c-0.6,1.5-1,2.9-1.4,4.3
		s-0.6,2.5-0.6,3.5c0,1.4,0.4,2.5,1.3,3.5c0.8,0.9,2.2,1.4,4,1.4c1.5,0,2.9-0.3,4.3-1c1.4-0.7,2.8-1.7,4.2-3c1.4-1.3,2.8-3,4.2-5
		c1.4-2,2.9-4.3,4.4-7l1.8-3.1l0.9,0.6l-1.8,3.1c-1.6,2.9-3.2,5.4-4.7,7.5s-3,3.9-4.5,5.3c-1.5,1.4-3,2.5-4.6,3.2
		c-1.6,0.7-3.2,1.1-4.9,1.1c-1.4,0-2.7-0.2-3.8-0.6c-1.1-0.4-2-1-2.7-1.8s-1.3-1.6-1.6-2.6c-0.4-1-0.5-2-0.5-3.1
		c0-1.2,0.2-2.5,0.6-4c0.4-1.5,0.8-3,1.4-4.6c0.6-1.6,1.2-3.2,1.8-4.9c0.7-1.6,1.3-3.2,1.8-4.8s1-3,1.4-4.4c0.4-1.4,0.6-2.6,0.6-3.7
		c0-0.8-0.1-1.5-0.3-2.1c-0.2-0.7-0.5-1.2-1-1.7s-1-0.9-1.7-1.1c-0.7-0.3-1.5-0.4-2.4-0.4c-1.4,0-2.8,0.3-4.2,1s-2.7,1.7-4.1,3.1
		c-1.4,1.4-2.8,3.1-4.2,5.2s-2.9,4.5-4.5,7.3l-1.8,3.1l-7.1,19.5h-5L221.5,20.8z"/>
	<path fill="#CA9A24" d="M270.9,20.8h5l-8.7,23.8c-0.3,0.9-0.6,1.8-1,2.7c-0.3,0.9-0.6,1.8-0.8,2.7c-0.2,0.9-0.4,1.8-0.6,2.6
		s-0.2,1.6-0.2,2.3c0,1.6,0.4,2.8,1.2,3.7c0.8,0.9,2.1,1.4,3.9,1.4c1.5,0,3-0.3,4.4-1c1.4-0.7,2.8-1.6,4.2-3s2.8-3,4.2-5
		s2.9-4.3,4.4-7l1.8-3.1l0.9,0.6l-1.8,3.1c-1.7,2.9-3.2,5.5-4.7,7.6c-1.5,2.1-3,3.9-4.5,5.3c-1.5,1.4-3,2.4-4.6,3.1
		c-1.6,0.7-3.2,1-5,1c-1.4,0-2.6-0.2-3.7-0.6c-1.1-0.4-1.9-1-2.7-1.8c-0.7-0.8-1.3-1.7-1.6-2.8c-0.4-1.1-0.5-2.3-0.5-3.6
		c0-1.2,0.1-2.5,0.4-3.9c0.3-1.4,0.7-2.9,1.2-4.4L270.9,20.8z M273.7,11.9c0-0.8,0.3-1.5,0.8-2c0.6-0.6,1.2-0.9,2-0.9
		c0.8,0,1.5,0.3,2,0.8c0.6,0.6,0.8,1.2,0.8,2c0,0.4-0.1,0.8-0.2,1.1c-0.1,0.4-0.4,0.7-0.6,0.9c-0.3,0.2-0.6,0.4-0.9,0.6
		s-0.7,0.2-1.1,0.2c-0.8,0-1.5-0.3-2-0.8C273.9,13.3,273.7,12.7,273.7,11.9z"/>
</g>
</svg>
